<svg xmlns="http://www.w3.org/2000/svg" width="1600" height="860" viewBox="0 0 1600 860" role="img" aria-label="Benchmark overview for educational ABSA">
  <defs>
    <style>
      .bg { fill: #fcfbf7; }
      .frame { fill: #fffefe; stroke: #d8d3c9; stroke-width: 1.2; }
      .label { font: 700 30px Georgia, "Times New Roman", serif; fill: #16324a; }
      .body { font: 17px Georgia, "Times New Roman", serif; fill: #31414f; }
      .chip { font: 700 13px Arial, sans-serif; fill: #4d6277; letter-spacing: 0.08em; text-transform: uppercase; }
      .arrow { stroke: #6a7886; stroke-width: 4; fill: none; marker-end: url(#arrow); }
      .panelA { fill: #edf3f7; stroke: #d7e2ea; stroke-width: 1.3; }
      .panelB { fill: #f2f5ee; stroke: #dde4d5; stroke-width: 1.3; }
      .panelC { fill: #f8f1e9; stroke: #eadbcc; stroke-width: 1.3; }
      .panelD { fill: #edf4ee; stroke: #d5e3d7; stroke-width: 1.3; }
      .side { fill: #f7f7f3; stroke: #ddd7cc; stroke-width: 1.2; }
      .center { text-anchor: middle; }
    </style>
    <marker id="arrow" markerWidth="10" markerHeight="10" refX="8" refY="5" orient="auto">
      <path d="M0,0 L10,5 L0,10 z" fill="#6a7886"/>
    </marker>
    <filter id="shadow2" x="-10%" y="-10%" width="120%" height="120%">
      <feDropShadow dx="0" dy="4" stdDeviation="7" flood-color="#d9d3ca" flood-opacity="0.28"/>
    </filter>
  </defs>
  <rect class="bg" width="1600" height="860"/>
  <rect x="34" y="34" width="1532" height="792" class="frame"/>

  <rect x="530" y="108" width="540" height="118" rx="24" class="panelA" filter="url(#shadow2)"/>
  <text x="800" y="163" class="label center">Source corpus</text>
  <text x="800" y="198" class="body center">10K reviews under one 20-aspect contract</text>

  <rect x="530" y="290" width="540" height="118" rx="24" class="panelB" filter="url(#shadow2)"/>
  <text x="800" y="345" class="label center">Data splits</text>
  <text x="800" y="380" class="body center">8k train / 1k validation / 1k test</text>

  <rect x="530" y="472" width="540" height="118" rx="24" class="panelC" filter="url(#shadow2)"/>
  <text x="800" y="527" class="label center">Unified evaluation</text>
  <text x="800" y="562" class="body center">local models and GPT methods share one scoring contract</text>

  <rect x="530" y="654" width="540" height="118" rx="24" class="panelD" filter="url(#shadow2)"/>
  <text x="800" y="709" class="label center">Held-out report</text>
  <text x="800" y="744" class="body center">test-set metrics reported once</text>

  <path class="arrow" d="M800 226 L800 290"/>
  <path class="arrow" d="M800 408 L800 472"/>
  <path class="arrow" d="M800 590 L800 654"/>

  <rect x="1154" y="320" width="278" height="82" rx="16" class="side"/>
  <text x="1293" y="351" class="chip center">Validation use</text>
  <text x="1293" y="381" class="body center">thresholds and model choice</text>

  <rect x="1154" y="522" width="278" height="82" rx="16" class="side"/>
  <text x="1293" y="553" class="chip center">Complementary checks</text>
  <text x="1293" y="583" class="body center">mapped real transfer and generator validation</text>
</svg>
